<svg xmlns="http://www.w3.org/2000/svg" xmlns:xlink="http://www.w3.org/1999/xlink" width="1600" zoomAndPan="magnify" viewBox="0 0 1200 599.999999" height="800" preserveAspectRatio="xMidYMid meet" version="1.0"><rect x="-120" width="1440" fill="none" y="-60" height="719.999999" fill-opacity="1"/><rect x="-120" width="1440" fill="none" y="-60" height="719.999999" fill-opacity="1"/><path fill="#000000" d="M 502.523438 444.738281 C 551.578125 376.058594 561.457031 291.015625 536.84375 216.582031 C 516.898438 197.523438 451.132812 155.453125 383.753906 147.71875 C 312.238281 139.449219 228.328125 160.304688 201.375 220.355469 C 195.625 233.121094 192.929688 251.28125 199.9375 252.71875 C 202.632812 246.785156 205.867188 241.210938 209.640625 235.640625 C 243.242188 188.535156 308.824219 177.566406 355.902344 211.1875 C 402.980469 244.808594 413.941406 310.433594 380.339844 357.539062 C 346.738281 404.644531 281.15625 415.613281 234.078125 381.992188 C 209.28125 364.191406 194.546875 337.582031 191.132812 309.355469 C 164.539062 303.960938 162.742188 277.710938 171.007812 243.910156 C 178.914062 211.726562 198.859375 173.429688 232.820312 141.96875 C 262.828125 114.277344 303.074219 94.5 349.792969 89.109375 C 392.558594 84.074219 431.546875 91.265625 469.101562 110.503906 C 461.015625 102.953125 452.390625 95.761719 443.046875 89.109375 C 328.769531 7.480469 169.390625 34.269531 87.816406 148.621094 C 6.238281 262.96875 32.832031 422.625 147.289062 504.25 C 261.75 585.875 420.945312 559.085938 502.523438 444.738281 Z M 502.523438 444.738281 " fill-opacity="1" fill-rule="nonzero"/><path fill="#000000" d="M 625.367188 355.691406 L 630.839844 355.691406 L 630.839844 388.980469 L 625.367188 388.980469 Z M 625.367188 355.691406 " fill-opacity="1" fill-rule="nonzero"/><path fill="#000000" d="M 662.761719 379.175781 L 642.238281 355.691406 L 638.363281 355.691406 L 638.363281 388.980469 L 643.835938 388.980469 L 643.835938 365.496094 L 664.132812 388.980469 L 668.234375 388.980469 L 668.234375 355.691406 L 662.761719 355.691406 Z M 662.761719 379.175781 " fill-opacity="1" fill-rule="nonzero"/><path fill="#000000" d="M 690.125 370.738281 L 683.285156 368.6875 C 681.917969 368.230469 680.777344 367.773438 680.09375 367.089844 C 679.636719 366.636719 679.179688 365.949219 679.179688 364.8125 C 679.179688 363.441406 679.636719 362.300781 680.550781 361.617188 C 681.6875 360.707031 683.058594 360.25 684.652344 360.25 C 686.476562 360.25 687.847656 360.707031 689.214844 361.617188 C 690.355469 362.53125 691.039062 363.898438 691.496094 365.496094 L 691.722656 366.636719 L 697.195312 365.496094 L 696.96875 364.355469 C 696.285156 361.390625 694.914062 359.109375 692.863281 357.515625 C 690.808594 355.917969 688.074219 355.007812 684.882812 355.007812 C 681.460938 355.007812 678.726562 355.917969 676.671875 357.742188 C 674.621094 359.566406 673.480469 361.847656 673.480469 364.8125 C 673.480469 366.179688 673.707031 367.320312 674.164062 368.460938 C 674.621094 369.597656 675.304688 370.511719 676.214844 371.195312 C 676.902344 371.878906 677.8125 372.335938 678.726562 372.792969 C 679.636719 373.246094 680.550781 373.476562 681.6875 373.933594 L 688.300781 375.984375 C 689.671875 376.441406 690.808594 376.894531 691.265625 377.582031 C 691.722656 378.265625 692.179688 378.949219 692.179688 379.859375 C 692.179688 381.230469 691.722656 382.367188 690.582031 383.050781 C 689.441406 383.964844 688.074219 384.421875 686.023438 384.421875 C 683.96875 384.421875 682.144531 383.964844 680.777344 382.824219 C 679.410156 381.683594 678.726562 380.316406 678.496094 378.492188 L 678.269531 377.351562 L 672.566406 378.492188 L 672.796875 379.632812 C 673.253906 382.824219 674.621094 385.332031 677.128906 387.15625 C 679.636719 388.980469 682.601562 389.894531 686.023438 389.894531 C 689.441406 389.894531 692.179688 388.980469 694.460938 387.15625 C 696.738281 385.332031 697.878906 382.824219 697.878906 379.859375 C 697.421875 376.441406 696.285156 372.5625 690.125 370.738281 Z M 690.125 370.738281 " fill-opacity="1" fill-rule="nonzero"/><path fill="#000000" d="M 724.101562 355.691406 L 697.652344 355.691406 L 697.652344 360.933594 L 708.140625 360.933594 L 708.140625 388.980469 L 713.613281 388.980469 L 713.613281 360.933594 L 724.101562 360.933594 Z M 724.101562 355.691406 " fill-opacity="1" fill-rule="nonzero"/><path fill="#000000" d="M 734.820312 355.691406 L 719.3125 388.980469 L 725.472656 388.980469 L 728.664062 381.457031 L 744.855469 381.457031 L 748.273438 388.980469 L 754.429688 388.980469 L 738.925781 355.691406 Z M 742.34375 376.210938 L 731.171875 376.210938 L 736.871094 363.898438 Z M 742.34375 376.210938 " fill-opacity="1" fill-rule="nonzero"/><path fill="#000000" d="M 780.65625 379.175781 L 760.132812 355.691406 L 756.253906 355.691406 L 756.253906 388.980469 L 761.726562 388.980469 L 761.726562 365.496094 L 782.023438 388.980469 L 786.128906 388.980469 L 786.128906 355.691406 L 780.65625 355.691406 Z M 780.65625 379.175781 " fill-opacity="1" fill-rule="nonzero"/><path fill="#000000" d="M 790.003906 360.933594 L 800.492188 360.933594 L 800.492188 388.980469 L 805.964844 388.980469 L 805.964844 360.933594 L 816.457031 360.933594 L 816.457031 355.691406 L 790.003906 355.691406 Z M 790.003906 360.933594 " fill-opacity="1" fill-rule="nonzero"/><path fill="#000000" d="M 860.007812 370.054688 C 861.378906 368.6875 862.0625 366.863281 862.0625 364.355469 C 862.0625 361.617188 861.148438 359.566406 859.324219 357.96875 C 857.5 356.375 855.222656 355.691406 852.257812 355.691406 L 838.117188 355.691406 L 838.117188 388.980469 L 853.394531 388.980469 C 856.816406 388.980469 859.78125 388.070312 861.832031 386.246094 C 864.113281 384.421875 865.027344 381.914062 865.027344 378.71875 C 865.027344 376.441406 864.34375 374.617188 863.203125 372.792969 C 862.289062 371.652344 861.148438 370.738281 860.007812 370.054688 Z M 843.363281 373.019531 L 852.710938 373.019531 C 854.765625 373.019531 856.589844 373.476562 857.730469 374.617188 C 858.871094 375.527344 859.554688 376.894531 859.554688 378.492188 C 859.554688 380.089844 859.097656 381.226562 857.957031 382.367188 C 856.816406 383.28125 855.222656 383.738281 853.167969 383.738281 L 843.363281 383.738281 Z M 855.449219 367.089844 C 854.765625 367.773438 853.625 368.003906 852.257812 368.003906 L 843.136719 368.003906 L 843.136719 360.933594 L 851.800781 360.933594 C 853.398438 360.933594 854.535156 361.164062 855.222656 361.847656 C 855.90625 362.53125 856.359375 363.441406 856.359375 364.582031 C 856.589844 365.722656 856.359375 366.636719 855.449219 367.089844 Z M 855.449219 367.089844 " fill-opacity="1" fill-rule="nonzero"/><path fill="#000000" d="M 876.425781 374.84375 L 894.671875 374.84375 L 894.671875 369.597656 L 876.425781 369.597656 L 876.425781 360.933594 L 895.125 360.933594 L 895.125 355.691406 L 870.726562 355.691406 L 870.726562 388.980469 L 895.355469 388.980469 L 895.355469 383.738281 L 876.425781 383.738281 Z M 876.425781 374.84375 " fill-opacity="1" fill-rule="nonzero"/><path fill="#000000" d="M 914.964844 379.859375 L 903.792969 355.691406 L 897.632812 355.691406 L 913.140625 388.980469 L 916.789062 388.980469 L 932.296875 355.691406 L 926.136719 355.691406 Z M 914.964844 379.859375 " fill-opacity="1" fill-rule="nonzero"/><path fill="#000000" d="M 939.363281 374.84375 L 957.605469 374.84375 L 957.605469 369.597656 L 939.363281 369.597656 L 939.363281 360.933594 L 958.289062 360.933594 L 958.289062 355.691406 L 933.890625 355.691406 L 933.890625 388.980469 L 958.289062 388.980469 L 958.289062 383.738281 L 939.363281 383.738281 Z M 939.363281 374.84375 " fill-opacity="1" fill-rule="nonzero"/><path fill="#000000" d="M 1010.28125 355.691406 L 995.230469 387.839844 L 986.109375 379.40625 C 987.933594 378.492188 989.53125 377.351562 990.671875 375.757812 C 992.265625 373.703125 992.953125 371.195312 992.953125 368.230469 C 992.953125 364.355469 991.582031 361.390625 989.074219 359.109375 C 986.566406 356.832031 983.144531 355.691406 979.042969 355.691406 L 965.359375 355.691406 L 965.359375 388.980469 L 970.832031 388.980469 L 970.832031 381 L 979.042969 381 C 979.269531 381 979.496094 381 979.726562 381 L 988.617188 388.980469 L 1000.476562 388.980469 L 1003.898438 381.457031 L 1020.085938 381.457031 L 1023.507812 388.980469 L 1029.664062 388.980469 L 1014.15625 355.691406 Z M 987.480469 368.230469 C 987.480469 370.511719 986.792969 372.335938 985.199219 373.703125 C 983.601562 375.070312 981.550781 375.757812 978.8125 375.757812 L 970.605469 375.757812 L 970.605469 360.933594 L 978.8125 360.933594 C 981.550781 360.933594 983.601562 361.617188 985.199219 362.988281 C 986.792969 364.355469 987.480469 365.949219 987.480469 368.230469 Z M 1017.808594 376.210938 L 1006.632812 376.210938 L 1012.332031 363.898438 Z M 1017.808594 376.210938 " fill-opacity="1" fill-rule="nonzero"/><path fill="#000000" d="M 1045.625 360.476562 C 1048.136719 360.476562 1050.1875 361.164062 1052.238281 362.53125 C 1054.0625 363.898438 1055.660156 365.722656 1056.570312 368.230469 L 1057.027344 369.371094 L 1062.042969 367.546875 L 1061.816406 366.40625 C 1060.675781 362.988281 1058.625 360.25 1055.886719 358.199219 C 1052.921875 356.144531 1049.730469 355.234375 1046.082031 355.234375 C 1041.292969 355.234375 1037.417969 356.832031 1033.996094 360.25 C 1030.804688 363.671875 1028.980469 367.773438 1028.980469 372.5625 C 1028.980469 377.351562 1030.578125 381.457031 1033.996094 384.648438 C 1037.1875 387.839844 1041.292969 389.664062 1046.082031 389.664062 C 1055.433594 389.664062 1062.042969 383.507812 1062.042969 374.84375 L 1062.042969 373.703125 L 1041.066406 373.703125 L 1041.066406 378.949219 L 1055.203125 378.949219 C 1054.519531 380.542969 1053.378906 381.683594 1052.011719 382.597656 C 1050.1875 383.738281 1048.136719 384.421875 1045.855469 384.421875 C 1042.660156 384.421875 1039.925781 383.28125 1037.644531 381 C 1035.363281 378.71875 1034.226562 375.984375 1034.226562 372.5625 C 1034.226562 369.144531 1035.363281 366.40625 1037.644531 364.125 C 1039.925781 361.617188 1042.433594 360.476562 1045.625 360.476562 Z M 1045.625 360.476562 " fill-opacity="1" fill-rule="nonzero"/><path fill="#000000" d="M 1071.851562 374.84375 L 1090.09375 374.84375 L 1090.09375 369.597656 L 1071.851562 369.597656 L 1071.851562 360.933594 L 1090.777344 360.933594 L 1090.777344 355.691406 L 1066.378906 355.691406 L 1066.378906 388.980469 L 1090.777344 388.980469 L 1090.777344 383.738281 L 1071.851562 383.738281 Z M 1071.851562 374.84375 " fill-opacity="1" fill-rule="nonzero"/><path fill="#000000" d="M 1111.300781 370.738281 L 1104.457031 368.6875 C 1103.089844 368.230469 1101.949219 367.773438 1101.265625 367.089844 C 1100.808594 366.636719 1100.355469 365.949219 1100.355469 364.8125 C 1100.355469 363.441406 1100.808594 362.300781 1101.722656 361.617188 C 1102.863281 360.707031 1104.230469 360.25 1105.828125 360.25 C 1107.652344 360.25 1109.019531 360.707031 1110.386719 361.617188 C 1111.527344 362.53125 1112.210938 363.898438 1112.667969 365.496094 L 1112.894531 366.636719 L 1118.367188 365.496094 L 1118.140625 364.355469 C 1117.457031 361.390625 1116.089844 359.109375 1114.035156 357.515625 C 1111.984375 355.917969 1109.246094 355.007812 1106.054688 355.007812 C 1102.632812 355.007812 1099.898438 355.917969 1097.84375 357.742188 C 1095.792969 359.566406 1094.652344 361.847656 1094.652344 364.8125 C 1094.652344 366.179688 1094.882812 367.320312 1095.335938 368.460938 C 1095.792969 369.597656 1096.476562 370.511719 1097.390625 371.195312 C 1098.300781 371.878906 1098.984375 372.335938 1099.898438 372.792969 C 1100.808594 373.246094 1101.722656 373.476562 1102.863281 373.933594 L 1109.476562 375.984375 C 1110.84375 376.441406 1111.984375 376.894531 1112.4375 377.582031 C 1112.894531 378.265625 1113.351562 378.949219 1113.351562 379.859375 C 1113.351562 381.230469 1112.894531 382.367188 1111.753906 383.050781 C 1110.613281 383.964844 1109.246094 384.421875 1107.195312 384.421875 C 1105.140625 384.421875 1103.316406 383.964844 1101.949219 382.824219 C 1100.582031 381.683594 1099.898438 380.316406 1099.667969 378.492188 L 1099.441406 377.351562 L 1093.742188 378.492188 L 1093.96875 379.632812 C 1094.425781 382.824219 1095.792969 385.332031 1098.300781 387.15625 C 1100.808594 388.980469 1103.773438 389.894531 1107.195312 389.894531 C 1110.613281 389.894531 1113.351562 388.980469 1115.632812 387.15625 C 1117.914062 385.332031 1119.050781 382.824219 1119.050781 379.859375 C 1118.824219 376.441406 1117.457031 372.5625 1111.300781 370.738281 Z M 1111.300781 370.738281 " fill-opacity="1" fill-rule="nonzero"/><path fill="#000000" d="M 1109.019531 297.316406 L 1109.019531 280.671875 L 1155.539062 280.671875 L 1155.539062 260.148438 L 1109.019531 260.148438 L 1109.019531 243.960938 L 1156.449219 243.960938 L 1156.449219 223.4375 L 1085.304688 223.4375 L 1085.304688 243.960938 C 1083.480469 239.855469 1080.972656 236.433594 1077.777344 233.242188 C 1070.710938 226.628906 1060.90625 223.210938 1048.589844 223.210938 L 1004.808594 223.210938 L 1004.808594 247.152344 C 1002.984375 241.679688 1000.25 237.117188 995.914062 233.242188 C 988.847656 226.628906 979.042969 223.210938 966.726562 223.210938 L 922.945312 223.210938 L 922.945312 253.082031 C 920.664062 246.925781 916.789062 241.453125 911.773438 236.433594 C 902.195312 227.085938 890.566406 222.527344 876.882812 222.527344 C 863.203125 222.527344 851.570312 227.085938 841.765625 236.433594 C 836.523438 241.453125 832.875 246.925781 830.367188 253.082031 L 830.367188 223.210938 L 806.421875 223.210938 L 806.421875 259.691406 L 769.480469 259.691406 L 769.480469 223.210938 L 745.765625 223.210938 L 745.765625 239.628906 C 743.257812 236.664062 740.519531 233.699219 737.328125 231.191406 C 728.664062 224.578125 718.628906 221.386719 707.230469 221.386719 C 693.320312 221.386719 681.460938 226.175781 671.882812 235.523438 C 662.308594 244.871094 657.519531 256.5 657.519531 270.183594 C 657.519531 270.867188 657.519531 271.550781 657.519531 272.234375 C 653.640625 268.128906 647.710938 264.710938 639.503906 261.972656 L 621.261719 256.042969 C 617.15625 254.90625 615.105469 252.394531 615.105469 248.75 C 615.105469 246.238281 616.015625 244.1875 617.839844 242.820312 C 619.664062 241.453125 622.171875 240.765625 625.136719 240.765625 C 632.664062 240.765625 637.453125 244.871094 639.046875 253.082031 L 662.308594 248.292969 C 660.710938 239.628906 656.832031 233.015625 649.992188 228.226562 C 643.378906 223.664062 634.941406 221.15625 625.136719 221.15625 C 614.648438 221.15625 605.984375 223.894531 599.371094 229.136719 C 592.757812 234.382812 589.566406 241.679688 589.566406 251.027344 C 589.566406 258.324219 591.617188 263.796875 595.722656 268.128906 C 599.828125 272.234375 605.753906 275.425781 613.507812 277.707031 L 631.066406 282.722656 C 635.855469 283.863281 638.363281 286.601562 638.363281 290.476562 C 638.363281 292.984375 637.453125 295.035156 635.398438 296.40625 C 633.347656 298 630.609375 298.683594 627.191406 298.683594 C 618.523438 298.683594 613.28125 294.351562 611.457031 285.460938 L 587.054688 290.476562 C 588.195312 299.367188 592.527344 306.210938 599.828125 311.453125 C 607.125 316.699219 616.015625 319.207031 626.503906 319.207031 C 631.292969 319.207031 635.855469 318.523438 640.1875 317.382812 C 644.519531 316.242188 648.398438 314.417969 652.046875 312.136719 C 655.695312 309.859375 658.429688 306.664062 660.484375 302.789062 C 662.078125 300.054688 662.992188 296.859375 663.445312 293.441406 C 665.726562 297.542969 668.691406 301.421875 672.339844 305.070312 C 681.917969 314.417969 693.546875 319.207031 707.683594 319.207031 C 719.085938 319.207031 729.347656 316.015625 738.011719 309.402344 C 741.207031 306.894531 743.941406 304.15625 746.449219 300.964844 L 746.449219 317.15625 L 769.710938 317.15625 L 769.710938 279.988281 L 806.648438 279.988281 L 806.648438 317.15625 L 830.59375 317.15625 L 830.59375 287.511719 C 832.875 293.667969 836.75 299.140625 841.765625 304.15625 C 851.34375 313.507812 862.972656 318.066406 876.882812 318.066406 C 890.566406 318.066406 902.195312 313.507812 911.773438 304.15625 C 917.015625 299.140625 920.664062 293.667969 922.945312 287.511719 L 922.945312 317.15625 L 946.660156 317.15625 L 946.660156 296.632812 L 966.726562 296.632812 C 978.8125 296.632812 988.390625 293.210938 995.6875 286.371094 C 1000.019531 282.265625 1002.984375 277.480469 1004.808594 272.007812 L 1004.808594 317.15625 L 1028.523438 317.15625 L 1028.523438 296.632812 L 1048.589844 296.632812 C 1060.675781 296.632812 1070.253906 293.210938 1077.550781 286.371094 C 1080.972656 283.179688 1083.480469 279.53125 1085.304688 275.199219 L 1085.304688 317.15625 L 1157.132812 317.15625 L 1157.132812 296.632812 L 1109.019531 296.632812 Z M 729.574219 283.40625 C 727.980469 287.054688 725.925781 290.019531 722.960938 292.527344 C 718.628906 296.40625 713.386719 298.230469 707 298.230469 C 699.703125 298.230469 693.546875 295.492188 688.757812 290.246094 C 683.96875 285.003906 681.460938 278.390625 681.460938 270.636719 C 681.460938 262.886719 683.96875 256.273438 688.757812 251.027344 C 693.546875 245.785156 699.703125 243.046875 707 243.046875 C 713.15625 243.046875 718.402344 244.871094 722.960938 248.746094 C 725.925781 251.257812 727.980469 254.21875 729.574219 257.867188 L 745.765625 249.203125 L 745.765625 291.84375 Z M 895.355469 290.019531 C 890.335938 295.265625 884.179688 297.773438 876.882812 297.773438 C 869.585938 297.773438 863.429688 295.265625 858.414062 290.019531 C 853.394531 284.777344 850.886719 278.390625 850.886719 270.867188 C 850.886719 263.339844 853.394531 256.730469 858.414062 251.710938 C 863.429688 246.46875 869.585938 243.960938 876.882812 243.960938 C 884.179688 243.960938 890.109375 246.46875 895.355469 251.710938 C 900.371094 256.957031 902.878906 263.339844 902.878906 270.867188 C 902.652344 278.390625 900.144531 284.777344 895.355469 290.019531 Z M 978.8125 272.234375 C 975.394531 275.425781 971.058594 277.023438 966.042969 277.023438 L 946.890625 277.023438 L 946.890625 244.1875 L 966.042969 244.1875 C 971.058594 244.1875 975.394531 245.554688 978.8125 248.519531 C 982.234375 251.484375 984.058594 255.359375 984.058594 260.148438 C 984.058594 264.9375 982.234375 269.042969 978.8125 272.234375 Z M 1060.675781 272.234375 C 1057.257812 275.425781 1052.921875 277.023438 1047.90625 277.023438 L 1028.753906 277.023438 L 1028.753906 244.1875 L 1047.90625 244.1875 C 1052.921875 244.1875 1057.257812 245.554688 1060.675781 248.519531 C 1064.097656 251.484375 1065.921875 255.359375 1065.921875 260.148438 C 1065.921875 264.9375 1064.097656 269.042969 1060.675781 272.234375 Z M 1060.675781 272.234375 " fill-opacity="1" fill-rule="nonzero"/></svg>