<?xml version="1.0" encoding="UTF-8"?>
<svg xmlns="http://www.w3.org/2000/svg" xmlns:xlink="http://www.w3.org/1999/xlink" version="1.1" id="Ebene_1" x="0px" y="0px" viewBox="0 0 311.8 416.7" style="enable-background:new 0 0 311.8 416.7;" xml:space="preserve">
<style type="text/css">
	.st0{fill:#874631;}
	.st1{fill:#25AFB5;}
</style>
<path class="st0" d="M271.3,238c27.3-38.2,32.8-85.5,19.1-126.9c-11.1-10.6-47.7-34-85.2-38.3c-39.8-4.6-86.5,7-101.5,40.4  c-3.2,7.1-4.7,17.2-0.8,18c1.5-3.3,3.3-6.4,5.4-9.5c18.7-26.2,55.2-32.3,81.4-13.6s32.3,55.2,13.6,81.4s-55.2,32.3-81.4,13.6  c-13.8-9.9-22-24.7-23.9-40.4c-14.8-3-15.8-17.6-11.2-36.4c4.4-17.9,15.5-39.2,34.4-56.7c16.7-15.4,39.1-26.4,65.1-29.4  c23.8-2.8,45.5,1.2,66.4,11.9c-4.5-4.2-9.3-8.2-14.5-11.9C174.6-5.2,85.9,9.7,40.5,73.3S9.9,225.7,73.6,271.1S225.9,301.6,271.3,238  z"></path>
<g>
	<rect x="47.7" y="388.7" class="st1" width="2.4" height="14.6"></rect>
	<polygon class="st1" points="64.1,399 55.1,388.7 53.4,388.7 53.4,403.3 55.8,403.3 55.8,393 64.7,403.3 66.5,403.3 66.5,388.7    64.1,388.7  "></polygon>
	<path class="st1" d="M76.1,395.3l-3-0.9c-0.6-0.2-1.1-0.4-1.4-0.7c-0.2-0.2-0.4-0.5-0.4-1c0-0.6,0.2-1.1,0.6-1.4   c0.5-0.4,1.1-0.6,1.8-0.6c0.8,0,1.4,0.2,2,0.6c0.5,0.4,0.8,1,1,1.7l0.1,0.5l2.4-0.5l-0.1-0.5c-0.3-1.3-0.9-2.3-1.8-3   c-0.9-0.7-2.1-1.1-3.5-1.1c-1.5,0-2.7,0.4-3.6,1.2c-0.9,0.8-1.4,1.8-1.4,3.1c0,0.6,0.1,1.1,0.3,1.6c0.2,0.5,0.5,0.9,0.9,1.2   c0.3,0.3,0.7,0.5,1.1,0.7c0.4,0.2,0.8,0.3,1.3,0.5l2.9,0.9c0.6,0.2,1.1,0.4,1.3,0.7c0.2,0.3,0.4,0.6,0.4,1c0,0.6-0.2,1.1-0.7,1.4   c-0.5,0.4-1.1,0.6-2,0.6c-0.9,0-1.7-0.2-2.3-0.7c-0.6-0.5-0.9-1.1-1-1.9l-0.1-0.5l-2.5,0.5l0.1,0.5c0.2,1.4,0.8,2.5,1.9,3.3   c1.1,0.8,2.4,1.2,3.9,1.2c1.5,0,2.7-0.4,3.7-1.2c1-0.8,1.5-1.9,1.5-3.2C79.3,397.8,78.8,396.1,76.1,395.3z"></path>
	<polygon class="st1" points="91,388.7 79.4,388.7 79.4,391 84,391 84,403.3 86.4,403.3 86.4,391 91,391  "></polygon>
	<path class="st1" d="M95.7,388.7l-6.8,14.6h2.7L93,400h7.1l1.5,3.3h2.7l-6.8-14.6H95.7z M99,397.7h-4.9l2.5-5.4L99,397.7z"></path>
	<polygon class="st1" points="115.8,399 106.8,388.7 105.1,388.7 105.1,403.3 107.5,403.3 107.5,393 116.4,403.3 118.2,403.3    118.2,388.7 115.8,388.7  "></polygon>
	<polygon class="st1" points="119.9,391 124.5,391 124.5,403.3 126.9,403.3 126.9,391 131.5,391 131.5,388.7 119.9,388.7  "></polygon>
	<path class="st1" d="M150.6,395c0.6-0.6,0.9-1.4,0.9-2.5c0-1.2-0.4-2.1-1.2-2.8c-0.8-0.7-1.8-1-3.1-1h-6.2v14.6h6.7   c1.5,0,2.8-0.4,3.7-1.2c1-0.8,1.4-1.9,1.4-3.3c0-1-0.3-1.8-0.8-2.6C151.6,395.7,151.1,395.3,150.6,395z M143.3,396.3h4.1   c0.9,0,1.7,0.2,2.2,0.7c0.5,0.4,0.8,1,0.8,1.7c0,0.7-0.2,1.2-0.7,1.7c-0.5,0.4-1.2,0.6-2.1,0.6h-4.3V396.3z M148.6,393.7   c-0.3,0.3-0.8,0.4-1.4,0.4h-4V391h3.8c0.7,0,1.2,0.1,1.5,0.4c0.3,0.3,0.5,0.7,0.5,1.2C149.1,393.1,149,393.5,148.6,393.7z"></path>
	<polygon class="st1" points="157.8,397.1 165.8,397.1 165.8,394.8 157.8,394.8 157.8,391 166,391 166,388.7 155.3,388.7    155.3,403.3 166.1,403.3 166.1,401 157.8,401  "></polygon>
	<polygon class="st1" points="174.7,399.3 169.8,388.7 167.1,388.7 173.9,403.3 175.5,403.3 182.3,388.7 179.6,388.7  "></polygon>
	<polygon class="st1" points="185.4,397.1 193.4,397.1 193.4,394.8 185.4,394.8 185.4,391 193.7,391 193.7,388.7 183,388.7    183,403.3 193.7,403.3 193.7,401 185.4,401  "></polygon>
	<path class="st1" d="M216.5,388.7l-6.6,14.1l-4-3.7c0.8-0.4,1.5-0.9,2-1.6c0.7-0.9,1-2,1-3.3c0-1.7-0.6-3-1.7-4   c-1.1-1-2.6-1.5-4.4-1.5h-6v14.6h2.4v-3.5h3.6c0.1,0,0.2,0,0.3,0l3.9,3.5h2.6h0.7h1.9l1.5-3.3h7.1l1.5,3.3h2.7l-6.8-14.6H216.5z    M206.5,394.2c0,1-0.3,1.8-1,2.4c-0.7,0.6-1.6,0.9-2.8,0.9h-3.6V391h3.6c1.2,0,2.1,0.3,2.8,0.9   C206.2,392.5,206.5,393.2,206.5,394.2z M219.8,397.7h-4.9l2.5-5.4L219.8,397.7z"></path>
	<path class="st1" d="M232,390.8c1.1,0,2,0.3,2.9,0.9c0.8,0.6,1.5,1.4,1.9,2.5l0.2,0.5l2.2-0.8l-0.1-0.5c-0.5-1.5-1.4-2.7-2.6-3.6   c-1.3-0.9-2.7-1.3-4.3-1.3c-2.1,0-3.8,0.7-5.3,2.2c-1.4,1.5-2.2,3.3-2.2,5.4c0,2.1,0.7,3.9,2.2,5.3c1.4,1.4,3.2,2.2,5.3,2.2   c4.1,0,7-2.7,7-6.5v-0.5H230v2.3h6.2c-0.3,0.7-0.8,1.2-1.4,1.6c-0.8,0.5-1.7,0.8-2.7,0.8c-1.4,0-2.6-0.5-3.6-1.5   c-1-1-1.5-2.2-1.5-3.7c0-1.5,0.5-2.7,1.5-3.7C229.5,391.3,230.6,390.8,232,390.8z"></path>
	<polygon class="st1" points="243.5,397.1 251.5,397.1 251.5,394.8 243.5,394.8 243.5,391 251.8,391 251.8,388.7 241.1,388.7    241.1,403.3 251.8,403.3 251.8,401 243.5,401  "></polygon>
	<path class="st1" d="M260.8,395.3l-3-0.9c-0.6-0.2-1.1-0.4-1.4-0.7c-0.2-0.2-0.4-0.5-0.4-1c0-0.6,0.2-1.1,0.6-1.4   c0.5-0.4,1.1-0.6,1.8-0.6c0.8,0,1.4,0.2,2,0.6c0.5,0.4,0.8,1,1,1.7l0.1,0.5l2.4-0.5l-0.1-0.5c-0.3-1.3-0.9-2.3-1.8-3   c-0.9-0.7-2.1-1.1-3.5-1.1c-1.5,0-2.7,0.4-3.6,1.2c-0.9,0.8-1.4,1.8-1.4,3.1c0,0.6,0.1,1.1,0.3,1.6c0.2,0.5,0.5,0.9,0.9,1.2   c0.4,0.3,0.7,0.5,1.1,0.7c0.4,0.2,0.8,0.3,1.3,0.5l2.9,0.9c0.6,0.2,1.1,0.4,1.3,0.7c0.2,0.3,0.4,0.6,0.4,1c0,0.6-0.2,1.1-0.7,1.4   c-0.5,0.4-1.1,0.6-2,0.6c-0.9,0-1.7-0.2-2.3-0.7c-0.6-0.5-0.9-1.1-1-1.9l-0.1-0.5l-2.5,0.5l0.1,0.5c0.2,1.4,0.8,2.5,1.9,3.3   c1.1,0.8,2.4,1.2,3.9,1.2c1.5,0,2.7-0.4,3.7-1.2c1-0.8,1.5-1.9,1.5-3.2C264.1,397.8,263.5,396.1,260.8,395.3z"></path>
</g>
<path class="st0" d="M259.8,363.1l0-7.3h20.4v-9h-20.4v-7.1h20.8v-9h-31.2v9c-0.8-1.8-1.9-3.3-3.3-4.7c-3.1-2.9-7.4-4.4-12.8-4.4  l-19.2,0v10.5c-0.8-2.4-2-4.4-3.9-6.1c-3.1-2.9-7.4-4.4-12.8-4.4h-19.2l0,13.1c-1-2.7-2.7-5.1-4.9-7.3c-4.2-4.1-9.3-6.1-15.3-6.1  c-6,0-11.1,2-15.4,6.1c-2.3,2.2-3.9,4.6-5,7.3v-13.1h-10.5v16l-16.2,0l0-16h-10.4l0,7.2c-1.1-1.3-2.3-2.6-3.7-3.7  c-3.8-2.9-8.2-4.3-13.2-4.3c-6.1,0-11.3,2.1-15.5,6.2c-4.2,4.1-6.3,9.2-6.3,15.2c0,0.3,0,0.6,0,0.9c0,0,0,0,0,0  c-1.7-1.8-4.3-3.3-7.9-4.5l-8-2.6c-1.8-0.5-2.7-1.6-2.7-3.2c0-1.1,0.4-2,1.2-2.6c0.8-0.6,1.9-0.9,3.2-0.9c3.3,0,5.4,1.8,6.1,5.4  l10.2-2.1c-0.7-3.8-2.4-6.7-5.4-8.8c-2.9-2-6.6-3.1-10.9-3.1c-4.6,0-8.4,1.2-11.3,3.5c-2.9,2.3-4.3,5.5-4.3,9.6  c0,3.2,0.9,5.6,2.7,7.5c1.8,1.8,4.4,3.2,7.8,4.2l7.7,2.2c2.1,0.5,3.2,1.7,3.2,3.4c0,1.1-0.4,2-1.3,2.6c-0.9,0.7-2.1,1-3.6,1  c-3.8,0-6.1-1.9-6.9-5.8l-10.7,2.2c0.5,3.9,2.4,6.9,5.6,9.2c3.2,2.3,7.1,3.4,11.7,3.4c2.1,0,4.1-0.3,6-0.8c1.9-0.5,3.6-1.3,5.2-2.3  c1.6-1,2.8-2.4,3.7-4.1c0.7-1.2,1.1-2.6,1.3-4.1c1,1.8,2.3,3.5,3.9,5.1c4.2,4.1,9.3,6.2,15.5,6.2c5,0,9.5-1.4,13.3-4.3  c1.4-1.1,2.6-2.3,3.7-3.7v7.1H111l0-16.3l16.2,0v16.3h10.5v-13c1,2.7,2.7,5.1,4.9,7.3c4.2,4.1,9.3,6.1,15.4,6.1c6,0,11.1-2,15.3-6.1  c2.3-2.2,3.9-4.6,4.9-7.3v13h10.4v-9h8.8c5.3,0,9.5-1.5,12.7-4.5c1.9-1.8,3.2-3.9,4-6.3l0,19.8h10.4v-9h8.8c5.3,0,9.5-1.5,12.7-4.5  c1.5-1.4,2.6-3,3.4-4.9v18.4h31.5v-9H259.8z M93.4,357c-0.7,1.6-1.6,2.9-2.9,4c-1.9,1.7-4.2,2.5-7,2.5c-3.2,0-5.9-1.2-8-3.5  c-2.1-2.3-3.2-5.2-3.2-8.6c0-3.4,1.1-6.3,3.2-8.6c2.1-2.3,4.8-3.5,8-3.5c2.7,0,5,0.8,7,2.5c1.3,1.1,2.2,2.4,2.9,4l7.1-3.8l0,18.7  L93.4,357z M166.1,359.9c-2.2,2.3-4.9,3.4-8.1,3.4c-3.2,0-5.9-1.1-8.1-3.4c-2.2-2.3-3.3-5.1-3.3-8.4c0-3.3,1.1-6.2,3.3-8.4  c2.2-2.3,4.9-3.4,8.1-3.4s5.8,1.1,8.1,3.4c2.2,2.3,3.3,5.1,3.3,8.4C169.3,354.8,168.2,357.6,166.1,359.9z M202.7,352.1  c-1.5,1.4-3.4,2.1-5.6,2.1h-8.4v-14.4h8.4c2.2,0,4.1,0.6,5.6,1.9c1.5,1.3,2.3,3,2.3,5.1C205,348.9,204.2,350.7,202.7,352.1z   M238.6,352.1c-1.5,1.4-3.4,2.1-5.6,2.1h-8.4l0-14.4h8.4c2.2,0,4.1,0.6,5.6,1.9c1.5,1.3,2.3,3,2.3,5.1  C240.9,348.9,240.1,350.7,238.6,352.1z"></path>
</svg>
